<svg width="200" height="200" viewBox="0 0 200 200" fill="none" xmlns="http://www.w3.org/2000/svg">
<rect width="200" height="200" fill="#4F46E5"/>
<path d="M28.3816 33.2415H18.6188C18.275 33.2415 18 32.9656 18 32.6208V25.2414C18 24.8966 18.275 24.6207 18.6188 24.6207H47.2884C47.6321 24.6207 47.9071 24.8966 47.9071 25.2414V32.6208C47.9071 32.9656 47.6321 33.2415 47.2884 33.2415H37.5256V69.5176C37.5256 69.8624 37.2506 70.1383 36.9068 70.1383H29.0003C28.6566 70.1383 28.3816 69.8624 28.3816 69.5176V33.2415ZM43.0945 28.4138H22.3314C21.8501 28.4138 21.8501 29.3104 22.3314 29.3104H32.5067V65.8624C32.5067 66.3452 33.4005 66.3452 33.4005 65.8624V29.3104H43.0945C43.782 29.3104 43.7133 28.4138 43.0945 28.4138V28.4138ZM58.0824 70.1383C57.7387 70.1383 57.5324 69.8624 57.5324 69.5176V25.2414C57.5324 24.8966 57.7387 24.6207 58.0824 24.6207H65.9202C66.2639 24.6207 66.5389 24.8966 66.5389 25.2414V69.5176C66.5389 69.8624 66.2639 70.1383 65.9202 70.1383H58.0824ZM61.6575 28.7587V65.9314C61.6575 66.5521 62.4138 66.5521 62.4138 65.9314V28.7587C62.4138 28.2759 61.6575 28.2759 61.6575 28.7587V28.7587ZM93.421 53.5864C93.0772 53.5864 92.8022 53.3106 92.8022 52.9657V45.5864C92.8022 45.2415 93.0772 44.9657 93.421 44.9657H109.165C109.509 44.9657 109.784 45.2415 109.784 45.5864V56.414C109.784 66.5521 104.353 70.828 94.1085 70.828C84.552 70.828 78.2955 67.0348 78.2955 56.414V38.276C78.2955 28.2759 83.8644 24 94.1085 24C103.734 24 109.784 27.7242 109.784 38.276V39.7243C109.784 40.0691 109.509 40.345 109.165 40.345H101.259C100.915 40.345 100.64 40.0691 100.64 39.7243V38.8277C100.64 34.6208 97.9586 33.2415 94.4522 33.2415H93.6272C91.3584 33.2415 89.8459 33.8621 88.8146 35.2415C87.8521 36.5518 87.5083 38.276 87.5083 40.5519V54.2071C87.5083 60.2072 90.7396 61.5175 93.6272 61.5175H94.4522C98.6461 61.5175 100.64 58.621 100.64 54.2071V53.5864H93.421V53.5864ZM82.4894 55.9313C82.4894 63.5865 86.202 66.4141 94.0397 66.4141C102.29 66.4141 105.659 62.9658 105.659 54.483V49.3105C105.659 49.1036 105.521 48.8278 105.384 48.8278H95.8273C95.2085 48.8278 95.346 49.7243 95.8273 49.7243H104.834V54.483C104.834 61.8624 102.015 65.6555 94.0397 65.6555C87.4395 65.6555 83.3144 63.3107 83.3144 55.9313V39.3105C83.3144 32.207 86.5458 29.0345 94.0397 29.0345C99.6086 29.0345 104.696 32.138 104.284 36.8967C104.284 37.4484 105.04 37.5863 105.178 36.9656C105.178 30.8966 99.6774 28.2759 94.0397 28.2759C87.1645 28.2759 82.4894 30.7587 82.4894 39.3105V55.9313V55.9313ZM122.022 70.1383C121.678 70.1383 121.472 69.8624 121.472 69.5176V25.2414C121.472 24.8966 121.678 24.6207 122.022 24.6207H145.397C145.741 24.6207 146.016 24.8966 146.016 25.2414V32.6208C146.016 32.9656 145.741 33.2415 145.397 33.2415H130.547V42.6208H142.097C142.441 42.6208 142.647 42.8967 142.647 43.2415V50.7588C142.647 51.1037 142.441 51.3795 142.097 51.3795H130.547V61.5175H145.397C145.741 61.5175 146.016 61.7934 146.016 62.1382V69.5176C146.016 69.8624 145.741 70.1383 145.397 70.1383H122.022V70.1383ZM125.459 28.9656V65.6555C125.459 66.0693 125.734 66.2072 126.009 66.2072H141.822C142.441 66.2072 142.304 65.3796 141.822 65.3796H126.353V47.3795H139.004C139.416 47.3795 139.416 46.414 139.004 46.414H126.353V29.3104H141.822C142.304 29.3104 142.441 28.4138 141.822 28.4138H126.009C125.734 28.4138 125.459 28.6207 125.459 28.9656V28.9656ZM183.417 52.1381C182.455 54.1382 181.08 55.6554 179.155 56.552L184.93 69.3107C185.136 69.7245 184.861 70.1383 184.449 70.1383H175.992C175.717 70.1383 175.58 70.0004 175.511 69.7935L170.148 58.0692H166.642V69.5176C166.642 69.8624 166.367 70.1383 166.023 70.1383H158.117C157.842 70.1383 157.635 69.8624 157.635 69.5176V25.2414C157.635 24.8966 157.842 24.6207 158.117 24.6207H172.417C180.049 24.6207 184.655 28.9656 184.655 37.0346V45.7243C184.655 48.1381 184.242 50.414 183.417 52.1381V52.1381ZM175.648 43.5864V39.1036C175.648 34.2759 173.861 33.7932 168.636 33.7932H166.642V49.0347H168.636C172.967 49.0347 175.511 48.9657 175.648 43.5864ZM162.654 65.9314V54.1382H172.555L178.33 66.0693C178.467 66.4141 179.292 66.2762 179.086 65.6555L173.311 53.9313C178.673 53.1726 180.53 50.345 180.53 45.2415V36.6208C180.53 29.0345 173.655 28.4138 171.523 28.4138H162.242C162.104 28.4138 161.829 28.6207 161.829 28.8276V65.9314C161.829 66.4141 162.654 66.4141 162.654 65.9314V65.9314ZM179.705 36.6208V45.2415C179.705 52.2761 175.236 53.2416 170.904 53.2416H162.654V29.3104H171.523C178.948 29.3104 179.705 34.3449 179.705 36.6208V36.6208Z" fill="white"/>
<path d="M18.6451 131.032C18.2419 131.032 18 130.708 18 130.304V78.3736C18 77.9692 18.2419 77.6456 18.6451 77.6456H46.0618C46.465 77.6456 46.7875 77.9692 46.7875 78.3736V87.0287C46.7875 87.4331 46.465 87.7567 46.0618 87.7567H28.6441V98.7575H42.1912C42.5944 98.7575 42.8363 99.081 42.8363 99.4855V108.302C42.8363 108.707 42.5944 109.03 42.1912 109.03H28.6441V120.921H46.0618C46.465 120.921 46.7875 121.244 46.7875 121.649V130.304C46.7875 130.708 46.465 131.032 46.0618 131.032H18.6451ZM22.677 82.7416V125.774C22.677 126.26 22.9995 126.421 23.3221 126.421H41.8687C42.5944 126.421 42.4331 125.451 41.8687 125.451H23.7253V104.339H38.5625C39.0464 104.339 39.0464 103.206 38.5625 103.206H23.7253V83.146H41.8687C42.4331 83.146 42.5944 82.0945 41.8687 82.0945H23.3221C22.9995 82.0945 22.677 82.3371 22.677 82.7416V82.7416ZM82.8325 77.6456H92.0251C92.5089 77.6456 92.8315 78.1309 92.6702 78.6971L82.1874 102.397L94.8474 130.061C95.0893 130.547 94.7668 131.032 94.283 131.032H85.171C84.8484 131.032 84.6871 130.951 84.6065 130.628L75.7364 111.7L66.8663 130.628C66.6243 131.032 66.5437 131.032 66.2212 131.032H57.0285C56.5447 131.032 56.2221 130.547 56.464 130.061L69.0435 102.397L58.6412 78.6971C58.48 78.1309 58.8025 77.6456 59.2863 77.6456H68.6403C68.9628 77.6456 69.1241 77.8883 69.2854 78.05L75.7364 92.4482L82.268 78.05C82.3486 77.8883 82.5905 77.6456 82.8325 77.6456ZM87.5901 126.26C87.832 126.664 88.719 126.502 88.3964 125.774L76.3008 102.155L86.058 82.9033C86.2999 82.418 85.816 81.7709 85.2516 82.3371L75.7364 101.103L66.1405 82.3371C65.818 81.7709 64.689 82.1754 65.0922 82.9033L75.0913 102.155L62.915 125.774C62.6731 126.502 63.6408 126.664 63.802 126.26L75.7364 103.206L87.5901 126.26ZM123.393 77.6456C132.344 77.6456 137.747 82.7416 137.747 92.2055V102.397C137.747 111.053 132.424 116.876 123.393 116.876H116.62V130.304C116.62 130.708 116.297 131.032 115.894 131.032H106.62C106.298 131.032 106.056 130.708 106.056 130.304V78.3736C106.056 77.9692 106.298 77.6456 106.62 77.6456H123.393ZM127.183 99.9708V94.6322C127.183 89.0509 124.603 88.4846 118.958 88.4846H116.62V106.28H118.958C123.393 106.28 127.183 105.471 127.183 99.9708ZM132.908 101.831V91.7202C132.908 82.8225 126.054 82.0945 122.345 82.0945H111.459C111.297 82.0945 110.975 82.3371 110.975 82.5798V126.098C110.975 126.664 111.943 126.664 111.943 126.098V112.347H121.619C128.715 112.347 132.908 109.839 132.908 101.831V101.831ZM111.943 83.146H122.345C131.296 83.146 131.86 89.0509 131.86 91.7202V101.831C131.86 110.082 126.699 111.214 121.619 111.214H111.943V83.146ZM166.615 76.9176C173.55 76.9176 178.388 78.4545 181.452 81.7709C183.871 84.4402 185 88.242 185 93.6615V114.935C185 120.516 183.871 124.399 181.452 126.988C178.307 130.223 173.55 131.841 166.615 131.841C159.438 131.841 154.761 130.223 151.697 126.988C149.358 124.399 148.068 120.516 148.068 114.935V93.6615C148.068 88.242 149.358 84.4402 151.697 81.69C154.842 78.4545 159.599 76.9176 166.615 76.9176V76.9176ZM174.275 112.509V96.3308C174.275 89.2126 170.485 87.7567 167.018 87.7567H166.05C160.889 87.7567 158.874 91.0731 158.874 96.3308V112.509C158.874 119.627 162.663 121.164 166.05 121.164H167.018C172.179 121.164 174.195 117.685 174.275 112.509V112.509ZM153.148 94.2277V114.288C153.148 118.09 154.116 121.244 156.374 123.59C158.47 125.693 161.696 126.826 165.647 126.826H167.744C175.324 126.826 180.242 121.972 180.242 114.288V94.2277C180.242 85.9771 175.888 81.5282 167.744 81.5282H165.647C157.422 81.5282 153.148 85.9771 153.148 94.2277V94.2277ZM167.744 125.774H165.647C161.857 125.774 159.035 124.804 157.019 122.781C155.003 120.759 153.955 117.928 153.955 114.288V94.2277C153.955 86.5433 158.067 82.4989 165.647 82.4989H167.744C175.404 82.4989 179.194 86.4624 179.194 94.2277V114.288C179.194 117.685 178.146 120.759 175.969 122.862C173.872 124.642 171.05 125.774 167.744 125.774V125.774Z" fill="white"/>
<path d="M32.1591 138.238C35.8909 138.238 38.6898 139.284 40.5557 141.321C42.2021 143.137 43.0253 145.835 43.0253 149.138V163.726C43.0253 170.388 39.1837 174.572 32.1591 174.572H18.439C18.1646 174.572 18 174.351 18 174.076V138.733C18 138.458 18.1646 138.238 18.439 138.238H32.1591V138.238ZM35.836 162.075V150.79C35.836 147.321 34.025 145.119 30.1834 145.119H25.2442V167.69H30.1834C33.4762 167.69 35.836 165.543 35.836 162.075ZM21.3477 141.596V171.213C21.3477 171.434 21.5672 171.489 21.677 171.489H30.6224C36.9336 171.489 39.7874 167.69 39.7874 164.167V150.074C39.7874 144.238 36.7141 141.266 30.4578 141.266H21.677C21.5672 141.266 21.3477 141.321 21.3477 141.596V141.596ZM39.1288 150.074V164.167C39.1288 168.571 34.7384 170.883 30.6224 170.883H22.0062V141.981H30.4578C36.2202 141.981 39.1288 144.569 39.1288 150.074ZM53.0684 174.572C52.794 174.572 52.6293 174.351 52.6293 174.076V138.733C52.6293 138.458 52.794 138.238 53.0684 138.238H71.7276C72.002 138.238 72.2215 138.458 72.2215 138.733V144.624C72.2215 144.899 72.002 145.119 71.7276 145.119H59.8735V152.606H69.0933C69.3677 152.606 69.5324 152.826 69.5324 153.102V159.102C69.5324 159.377 69.3677 159.598 69.0933 159.598H59.8735V167.69H71.7276C72.002 167.69 72.2215 167.91 72.2215 168.186V174.076C72.2215 174.351 72.002 174.572 71.7276 174.572H53.0684ZM55.8124 141.706V170.993C55.8124 171.324 56.0319 171.434 56.2514 171.434H68.8738C69.3677 171.434 69.258 170.773 68.8738 170.773H56.5258V156.405H66.6237C66.953 156.405 66.953 155.634 66.6237 155.634H56.5258V141.981H68.8738C69.258 141.981 69.3677 141.266 68.8738 141.266H56.2514C56.0319 141.266 55.8124 141.431 55.8124 141.706V141.706ZM93.8442 152.276C98.0151 154.258 103.448 157.396 103.448 163.066C103.448 164.717 103.174 167.91 101.363 170.608C99.3322 173.636 96.1492 175.122 91.7588 175.122C87.094 175.122 81.6609 172.865 79.9596 167.745C79.9047 167.58 79.9596 167.415 80.1242 167.305L85.1732 162.956C85.3927 162.791 85.722 162.791 85.8866 163.066C85.9964 163.341 86.2159 163.782 86.4903 164.332C87.3135 166.039 89.2892 167.745 91.4844 167.745C93.1857 167.745 95.4907 166.809 95.4907 164.167C95.4907 161.635 92.0332 160.203 89.8929 159.377C87.4233 158.387 84.8988 157.12 82.7585 155.249C80.5084 153.157 79.4108 150.845 79.4108 148.092C79.4108 141.211 85.722 137.742 91.7039 137.742C96.4236 137.742 99.9359 140.22 102.241 145.119C102.351 145.339 102.241 145.615 102.076 145.725L97.1919 149.138C96.9724 149.248 96.8627 149.248 96.6431 148.973C94.7772 146.275 93.1308 145.009 90.9356 145.009C89.7831 145.009 87.094 145.45 87.094 147.486C87.094 149.964 91.649 151.23 93.8442 152.276V152.276ZM83.8561 167.47C85.2281 170.223 89.0148 171.819 92.0881 171.819C96.0943 171.819 99.3323 169.066 99.7713 164.883C100.32 159.763 96.3138 157.561 92.3625 155.579L90.6063 154.808C86.5452 152.992 83.5817 151.615 83.5817 147.817C83.5817 143.633 87.4233 141.706 91.21 141.706C94.6674 141.706 96.4785 143.743 97.4114 145.009C97.7407 145.45 98.2895 145.064 97.9603 144.624C97.0273 143.468 95.0516 141.046 91.21 141.046C86.8745 141.046 82.9231 143.193 82.9231 147.817C82.9231 151.946 86.2159 153.542 90.3868 155.469L92.0881 156.295C97.5212 158.882 99.4969 161.304 99.0579 164.828C98.2347 170.443 93.954 171.158 92.0881 171.158C87.9721 171.158 85.2281 168.681 84.4049 167.14C84.1305 166.864 83.7463 167.14 83.8561 167.47V167.47ZM112.119 174.572C111.845 174.572 111.68 174.351 111.68 174.076V138.733C111.68 138.458 111.845 138.238 112.119 138.238H118.376C118.65 138.238 118.87 138.458 118.87 138.733V174.076C118.87 174.351 118.65 174.572 118.376 174.572H112.119ZM114.973 141.541V171.213C114.973 171.709 115.577 171.709 115.577 171.213V141.541C115.577 141.156 114.973 141.156 114.973 141.541V141.541ZM140.328 161.359C140.053 161.359 139.834 161.139 139.834 160.864V154.973C139.834 154.698 140.053 154.478 140.328 154.478H152.895C153.17 154.478 153.389 154.698 153.389 154.973V163.616C153.389 171.709 149.054 175.122 140.876 175.122C133.248 175.122 128.254 172.094 128.254 163.616V149.138C128.254 141.156 132.699 137.742 140.876 137.742C148.56 137.742 153.389 140.715 153.389 149.138V150.294C153.389 150.569 153.17 150.79 152.895 150.79H146.584C146.31 150.79 146.09 150.569 146.09 150.294V149.578C146.09 146.22 143.95 145.119 141.151 145.119H140.492C138.681 145.119 137.474 145.615 136.651 146.716C135.882 147.762 135.608 149.138 135.608 150.955V161.855C135.608 166.644 138.187 167.69 140.492 167.69H141.151C144.499 167.69 146.09 165.378 146.09 161.855V161.359H140.328V161.359ZM131.602 163.231C131.602 169.342 134.565 171.599 140.822 171.599C147.407 171.599 150.096 168.846 150.096 162.075V157.946C150.096 157.781 149.987 157.561 149.877 157.561H142.248C141.755 157.561 141.864 158.276 142.248 158.276H149.438V162.075C149.438 167.965 147.188 170.993 140.822 170.993C135.553 170.993 132.26 169.121 132.26 163.231V149.964C132.26 144.294 134.84 141.761 140.822 141.761C145.267 141.761 149.328 144.238 148.999 148.037C148.999 148.477 149.602 148.587 149.712 148.092C149.712 143.248 145.322 141.156 140.822 141.156C135.334 141.156 131.602 143.137 131.602 149.964V163.231V163.231ZM177.701 138.733C177.701 138.458 177.92 138.238 178.195 138.238H184.506C184.781 138.238 185 138.458 185 138.733V174.076C185 174.351 184.781 174.572 184.506 174.572H178.414C178.195 174.572 177.975 174.461 177.92 174.296L169.908 156.185V174.076C169.908 174.351 169.688 174.572 169.414 174.572H163.158C162.883 174.572 162.719 174.351 162.719 174.076V138.733C162.719 138.458 162.883 138.238 163.158 138.238H169.634C169.853 138.238 169.963 138.403 170.018 138.513L177.701 156.295V138.733V138.733ZM181.652 171.268V141.541C181.652 141.156 180.939 141.046 180.939 141.541V169.837L166.615 141.431C166.451 141.211 166.012 141.211 166.012 141.541V171.213C166.012 171.709 166.67 171.709 166.67 171.213V142.972L180.939 171.324C181.158 171.709 181.652 171.599 181.652 171.268V171.268Z" fill="white"/>
</svg>
