<svg width="197" height="179" viewBox="0 0 197 179" fill="none" xmlns="http://www.w3.org/2000/svg">
<path d="M12.2465 10.9016H0.729924C0.324411 10.9016 0 10.5762 0 10.1694V1.46439C0 1.05762 0.324411 0.732198 0.729924 0.732198H34.5497C34.9552 0.732198 35.2797 1.05762 35.2797 1.46439V10.1694C35.2797 10.5762 34.9552 10.9016 34.5497 10.9016H23.0332V53.6944C23.0332 54.1012 22.7087 54.4266 22.3032 54.4266H12.9764C12.5709 54.4266 12.2465 54.1012 12.2465 53.6944V10.9016ZM29.6025 5.20673H5.10947C4.54175 5.20673 4.54175 6.26435 5.10947 6.26435H17.1127V49.3826C17.1127 49.9521 18.167 49.9521 18.167 49.3826V6.26435H29.6025C30.4135 6.26435 30.3324 5.20673 29.6025 5.20673V5.20673ZM47.2828 54.4266C46.8773 54.4266 46.634 54.1012 46.634 53.6944V1.46439C46.634 1.05762 46.8773 0.732198 47.2828 0.732198H56.5285C56.9341 0.732198 57.2585 1.05762 57.2585 1.46439V53.6944C57.2585 54.1012 56.9341 54.4266 56.5285 54.4266H47.2828ZM51.5002 5.61351V49.4639C51.5002 50.1961 52.3923 50.1961 52.3923 49.4639V5.61351C52.3923 5.04402 51.5002 5.04402 51.5002 5.61351V5.61351ZM88.9696 34.9014C88.5641 34.9014 88.2397 34.5759 88.2397 34.1692V25.4642C88.2397 25.0574 88.5641 24.732 88.9696 24.732H107.542C107.948 24.732 108.272 25.0574 108.272 25.4642V38.2369C108.272 50.1961 101.865 55.2401 89.7806 55.2401C78.5074 55.2401 71.127 50.7656 71.127 38.2369V16.8405C71.127 5.04402 77.6963 0 89.7806 0C101.135 0 108.272 4.39318 108.272 16.8405V18.549C108.272 18.9557 107.948 19.2812 107.542 19.2812H98.2153C97.8098 19.2812 97.4854 18.9557 97.4854 18.549V17.4914C97.4854 12.5287 94.3224 10.9016 90.1861 10.9016H89.2129C86.5365 10.9016 84.7523 11.6338 83.5357 13.2609C82.4003 14.8066 81.9948 16.8405 81.9948 19.5252V35.6336C81.9948 42.7115 85.8066 44.2572 89.2129 44.2572H90.1861C95.1334 44.2572 97.4854 40.8403 97.4854 35.6336V34.9014H88.9696V34.9014ZM76.0743 37.6674C76.0743 46.6979 80.4538 50.0334 89.6995 50.0334C99.4318 50.0334 103.406 45.9657 103.406 35.959V29.8573C103.406 29.6133 103.244 29.2879 103.081 29.2879H91.8082C91.0783 29.2879 91.2405 30.3455 91.8082 30.3455H102.433V35.959C102.433 44.664 99.1074 49.1385 89.6995 49.1385C81.9137 49.1385 77.0475 46.3724 77.0475 37.6674V18.0608C77.0475 9.68126 80.8593 5.93893 89.6995 5.93893C96.2688 5.93893 102.27 9.59991 101.784 15.2134C101.784 15.8643 102.676 16.027 102.838 15.2948C102.838 8.13552 96.3499 5.04402 89.6995 5.04402C81.5893 5.04402 76.0743 7.97281 76.0743 18.0608V37.6674V37.6674ZM122.708 54.4266C122.303 54.4266 122.059 54.1012 122.059 53.6944V1.46439C122.059 1.05762 122.303 0.732198 122.708 0.732198H150.283C150.689 0.732198 151.013 1.05762 151.013 1.46439V10.1694C151.013 10.5762 150.689 10.9016 150.283 10.9016H132.765V21.9659H146.39C146.796 21.9659 147.039 22.2913 147.039 22.6981V31.5658C147.039 31.9726 146.796 32.298 146.39 32.298H132.765V44.2572H150.283C150.689 44.2572 151.013 44.5826 151.013 44.9894V53.6944C151.013 54.1012 150.689 54.4266 150.283 54.4266H122.708V54.4266ZM126.763 5.85757V49.1385C126.763 49.6266 127.088 49.7894 127.412 49.7894H146.066C146.796 49.7894 146.634 48.8131 146.066 48.8131H127.818V27.5794H142.741C143.227 27.5794 143.227 26.4404 142.741 26.4404H127.818V6.26435H146.066C146.634 6.26435 146.796 5.20673 146.066 5.20673H127.412C127.088 5.20673 126.763 5.4508 126.763 5.85757V5.85757ZM195.133 33.1929C193.998 35.5522 192.375 37.342 190.105 38.3996L196.917 53.4503C197.161 53.9385 196.836 54.4266 196.35 54.4266H186.374C186.049 54.4266 185.887 54.2639 185.806 54.0198L179.48 40.1894H175.344V53.6944C175.344 54.1012 175.02 54.4266 174.614 54.4266H165.287C164.963 54.4266 164.719 54.1012 164.719 53.6944V1.46439C164.719 1.05762 164.963 0.732198 165.287 0.732198H182.157C191.159 0.732198 196.593 5.85757 196.593 15.3761V25.6269C196.593 28.4743 196.106 31.159 195.133 33.1929V33.1929ZM185.968 23.1049V17.8168C185.968 12.1219 183.86 11.5524 177.696 11.5524H175.344V29.5319H177.696C182.805 29.5319 185.806 29.4506 185.968 23.1049ZM170.64 49.4639V35.5522H182.319L189.131 49.6266C189.294 50.0334 190.267 49.8707 190.024 49.1385L183.211 35.3081C189.537 34.4132 191.727 31.0777 191.727 25.0574V14.888C191.727 5.93892 183.616 5.20673 181.102 5.20673H170.153C169.991 5.20673 169.667 5.4508 169.667 5.69486V49.4639C169.667 50.0334 170.64 50.0334 170.64 49.4639V49.4639ZM190.753 14.888V25.0574C190.753 33.3556 185.482 34.4946 180.372 34.4946H170.64V6.26435H181.102C189.861 6.26435 190.753 12.2033 190.753 14.888V14.888Z" fill="#3E63DD"/>
<path d="M0.760985 126.259C0.285369 126.259 0 125.878 0 125.4V64.1413C0 63.6642 0.285369 63.2825 0.760985 63.2825H33.1028C33.5785 63.2825 33.959 63.6642 33.959 64.1413V74.3511C33.959 74.8282 33.5785 75.2099 33.1028 75.2099H12.5563V88.1869H28.5369C29.0126 88.1869 29.2979 88.5686 29.2979 89.0457V99.4464C29.2979 99.9235 29.0126 100.305 28.5369 100.305H12.5563V114.332H33.1028C33.5785 114.332 33.959 114.713 33.959 115.191V125.4C33.959 125.878 33.5785 126.259 33.1028 126.259H0.760985ZM5.51714 69.2939V120.057C5.51714 120.629 5.89763 120.82 6.27813 120.82H28.1564C29.0126 120.82 28.8223 119.675 28.1564 119.675H6.75374V94.7709H24.2564C24.8271 94.7709 24.8271 93.435 24.2564 93.435H6.75374V69.771H28.1564C28.8223 69.771 29.0126 68.5306 28.1564 68.5306H6.27813C5.89763 68.5306 5.51714 68.8168 5.51714 69.2939V69.2939ZM76.479 63.2825H87.323C87.8938 63.2825 88.2743 63.855 88.084 64.523L75.718 92.4808L90.6523 125.114C90.9377 125.687 90.5572 126.259 89.9865 126.259H79.2376C78.8571 126.259 78.6668 126.164 78.5717 125.782L68.1082 103.454L57.6446 125.782C57.3592 126.259 57.2641 126.259 56.8836 126.259H46.0396C45.4689 126.259 45.0884 125.687 45.3737 125.114L60.2129 92.4808L47.9421 64.523C47.7518 63.855 48.1323 63.2825 48.703 63.2825H59.7373C60.1178 63.2825 60.3081 63.5688 60.4983 63.7596L68.1082 80.7442L75.8131 63.7596C75.9082 63.5688 76.1936 63.2825 76.479 63.2825ZM82.0913 120.629C82.3766 121.107 83.423 120.916 83.0425 120.057L68.774 92.1945L80.2839 69.4848C80.5693 68.9122 79.9985 68.1489 79.3327 68.8168L68.1082 90.9541L56.7885 68.8168C56.408 68.1489 55.0763 68.626 55.5519 69.4848L67.3472 92.1945L52.9836 120.057C52.6982 120.916 53.8397 121.107 54.0299 120.629L68.1082 93.435L82.0913 120.629ZM124.326 63.2825C134.885 63.2825 141.258 69.2939 141.258 80.458V92.4808C141.258 102.691 134.98 109.561 124.326 109.561H116.336V125.4C116.336 125.878 115.955 126.259 115.479 126.259H104.54C104.16 126.259 103.874 125.878 103.874 125.4V64.1413C103.874 63.6642 104.16 63.2825 104.54 63.2825H124.326ZM128.797 89.6182V83.3206C128.797 76.7366 125.753 76.0687 119.094 76.0687H116.336V97.0609H119.094C124.326 97.0609 128.797 96.1067 128.797 89.6182ZM135.55 91.8129V79.8855C135.55 69.3893 127.465 68.5306 123.089 68.5306H110.248C110.057 68.5306 109.677 68.8168 109.677 69.1031V120.439C109.677 121.107 110.818 121.107 110.818 120.439V104.217H122.233C130.604 104.217 135.55 101.259 135.55 91.8129V91.8129ZM110.818 69.771H123.089C133.648 69.771 134.314 76.7366 134.314 79.8855V91.8129C134.314 101.546 128.226 102.882 122.233 102.882H110.818V69.771ZM175.312 62.4237C183.493 62.4237 189.2 64.2367 192.815 68.1489C195.668 71.2977 197 75.7824 197 82.1755V107.271C197 113.855 195.668 118.435 192.815 121.488C189.105 125.305 183.493 127.213 175.312 127.213C166.846 127.213 161.329 125.305 157.714 121.488C154.956 118.435 153.434 113.855 153.434 107.271V82.1755C153.434 75.7824 154.956 71.2977 157.714 68.0535C161.424 64.2367 167.036 62.4237 175.312 62.4237V62.4237ZM184.349 104.408V85.3244C184.349 76.9275 179.878 75.2099 175.788 75.2099H174.646C168.558 75.2099 166.18 79.1221 166.18 85.3244V104.408C166.18 112.805 170.651 114.618 174.646 114.618H175.788C181.875 114.618 184.253 110.515 184.349 104.408V104.408ZM159.426 82.8435V106.507C159.426 110.992 160.568 114.713 163.231 117.481C165.704 119.962 169.509 121.297 174.17 121.297H176.644C185.585 121.297 191.388 115.572 191.388 106.507V82.8435C191.388 73.1107 186.251 67.8626 176.644 67.8626H174.17C164.468 67.8626 159.426 73.1107 159.426 82.8435V82.8435ZM176.644 120.057H174.17C169.7 120.057 166.37 118.912 163.992 116.526C161.614 114.141 160.378 110.801 160.378 106.507V82.8435C160.378 73.7786 165.229 69.0077 174.17 69.0077H176.644C185.68 69.0077 190.151 73.6832 190.151 82.8435V106.507C190.151 110.515 188.915 114.141 186.346 116.622C183.873 118.721 180.544 120.057 176.644 120.057V120.057Z" fill="#3E63DD"/>
<path d="M16.7026 134.76C21.1048 134.76 24.4065 135.994 26.6076 138.396C28.5498 140.539 29.5209 143.721 29.5209 147.618V164.827C29.5209 172.685 24.9892 177.62 16.7026 177.62H0.51791C0.194216 177.62 0 177.36 0 177.036V135.344C0 135.019 0.194216 134.76 0.51791 134.76H16.7026V134.76ZM21.0401 162.879V149.566C21.0401 145.475 18.9037 142.877 14.372 142.877H8.54551V169.503H14.372C18.2563 169.503 21.0401 166.97 21.0401 162.879ZM3.94906 138.721V173.659C3.94906 173.919 4.20802 173.984 4.3375 173.984H14.8899C22.3349 173.984 25.7013 169.503 25.7013 165.347V148.722C25.7013 141.838 22.0759 138.331 14.6957 138.331H4.3375C4.20802 138.331 3.94906 138.396 3.94906 138.721V138.721ZM24.9244 148.722V165.347C24.9244 170.542 19.7453 173.269 14.8899 173.269H4.72593V139.176H14.6957C21.4933 139.176 24.9244 142.228 24.9244 148.722ZM41.3681 177.62C41.0444 177.62 40.8501 177.36 40.8501 177.036V135.344C40.8501 135.019 41.0444 134.76 41.3681 134.76H63.3792C63.7029 134.76 63.9619 135.019 63.9619 135.344V142.293C63.9619 142.617 63.7029 142.877 63.3792 142.877H49.3957V151.709H60.2718C60.5955 151.709 60.7897 151.969 60.7897 152.294V159.372C60.7897 159.697 60.5955 159.956 60.2718 159.956H49.3957V169.503H63.3792C63.7029 169.503 63.9619 169.762 63.9619 170.087V177.036C63.9619 177.36 63.7029 177.62 63.3792 177.62H41.3681ZM44.605 138.851V173.399C44.605 173.789 44.8639 173.919 45.1229 173.919H60.0128C60.5955 173.919 60.466 173.139 60.0128 173.139H45.4466V156.19H57.3585C57.747 156.19 57.747 155.281 57.3585 155.281H45.4466V139.176H60.0128C60.466 139.176 60.5955 138.331 60.0128 138.331H45.1229C44.8639 138.331 44.605 138.526 44.605 138.851V138.851ZM89.4689 151.319C94.3891 153.657 100.798 157.359 100.798 164.048C100.798 165.996 100.475 169.762 98.3381 172.945C95.9428 176.516 92.188 178.27 87.0089 178.27C81.5061 178.27 75.0969 175.607 73.09 169.568C73.0253 169.373 73.09 169.178 73.2843 169.048L79.2402 163.918C79.4992 163.723 79.8876 163.723 80.0818 164.048C80.2113 164.372 80.4703 164.892 80.7939 165.541C81.765 167.555 84.0956 169.568 86.6852 169.568C88.6921 169.568 91.4111 168.464 91.4111 165.347C91.4111 162.359 87.3326 160.671 84.8077 159.697C81.8945 158.528 78.9165 157.034 76.3917 154.826C73.7374 152.358 72.4426 149.631 72.4426 146.384C72.4426 138.266 79.8876 134.175 86.9441 134.175C92.5117 134.175 96.6549 137.098 99.374 142.877C99.5034 143.137 99.374 143.462 99.1797 143.592L93.418 147.618C93.159 147.748 93.0296 147.748 92.7706 147.423C90.5695 144.241 88.6273 142.747 86.0378 142.747C84.6783 142.747 81.5061 143.267 81.5061 145.67C81.5061 148.592 86.8794 150.086 89.4689 151.319V151.319ZM77.6865 169.243C79.305 172.49 83.7719 174.373 87.3973 174.373C92.1232 174.373 95.9428 171.126 96.4607 166.191C97.1081 160.151 92.3822 157.554 87.721 155.216L85.6494 154.307C80.8587 152.164 77.3628 150.54 77.3628 146.059C77.3628 141.124 81.8945 138.851 86.3615 138.851C90.44 138.851 92.5764 141.254 93.677 142.747C94.0654 143.267 94.7128 142.812 94.3243 142.293C93.2238 140.929 90.8932 138.072 86.3615 138.072C81.2471 138.072 76.5859 140.604 76.5859 146.059C76.5859 150.93 80.4703 152.813 85.3904 155.086L87.3973 156.06C93.8064 159.112 96.137 161.97 95.6191 166.126C94.648 172.75 89.5984 173.594 87.3973 173.594C82.5419 173.594 79.305 170.672 78.3339 168.853C78.0102 168.529 77.557 168.853 77.6865 169.243V169.243ZM111.027 177.62C110.703 177.62 110.509 177.36 110.509 177.036V135.344C110.509 135.019 110.703 134.76 111.027 134.76H118.407C118.731 134.76 118.99 135.019 118.99 135.344V177.036C118.99 177.36 118.731 177.62 118.407 177.62H111.027ZM114.393 138.656V173.659C114.393 174.243 115.105 174.243 115.105 173.659V138.656C115.105 138.201 114.393 138.201 114.393 138.656V138.656ZM144.303 162.035C143.979 162.035 143.72 161.775 143.72 161.45V154.502C143.72 154.177 143.979 153.917 144.303 153.917H159.128C159.452 153.917 159.71 154.177 159.71 154.502V164.697C159.71 174.243 154.596 178.27 144.95 178.27C135.951 178.27 130.06 174.698 130.06 164.697V147.618C130.06 138.201 135.304 134.175 144.95 134.175C154.013 134.175 159.71 137.682 159.71 147.618V148.982C159.71 149.306 159.452 149.566 159.128 149.566H151.683C151.359 149.566 151.1 149.306 151.1 148.982V148.137C151.1 144.176 148.575 142.877 145.274 142.877H144.497C142.36 142.877 140.936 143.462 139.965 144.76C139.059 145.994 138.735 147.618 138.735 149.761V162.619C138.735 168.269 141.778 169.503 144.497 169.503H145.274C149.223 169.503 151.1 166.775 151.1 162.619V162.035H144.303V162.035ZM134.009 164.243C134.009 171.451 137.505 174.113 144.885 174.113C152.654 174.113 155.826 170.866 155.826 162.879V158.008C155.826 157.813 155.697 157.554 155.567 157.554H146.568C145.986 157.554 146.115 158.398 146.568 158.398H155.049V162.879C155.049 169.827 152.395 173.399 144.885 173.399C138.67 173.399 134.786 171.191 134.786 164.243V148.592C134.786 141.903 137.829 138.916 144.885 138.916C150.129 138.916 154.92 141.838 154.531 146.319C154.531 146.839 155.243 146.968 155.373 146.384C155.373 140.669 150.194 138.201 144.885 138.201C138.411 138.201 134.009 140.539 134.009 148.592V164.243V164.243ZM188.39 135.344C188.39 135.019 188.649 134.76 188.972 134.76H196.417C196.741 134.76 197 135.019 197 135.344V177.036C197 177.36 196.741 177.62 196.417 177.62H189.231C188.972 177.62 188.713 177.49 188.649 177.296L179.197 155.93V177.036C179.197 177.36 178.938 177.62 178.614 177.62H171.234C170.91 177.62 170.716 177.36 170.716 177.036V135.344C170.716 135.019 170.91 134.76 171.234 134.76H178.873C179.132 134.76 179.262 134.954 179.326 135.084L188.39 156.06V135.344V135.344ZM193.051 173.724V138.656C193.051 138.201 192.209 138.072 192.209 138.656V172.035L175.312 138.526C175.118 138.266 174.6 138.266 174.6 138.656V173.659C174.6 174.243 175.377 174.243 175.377 173.659V140.345L192.209 173.789C192.468 174.243 193.051 174.113 193.051 173.724V173.724Z" fill="#3E63DD"/>
</svg>
